<svg xmlns="http://www.w3.org/2000/svg" xmlns:xlink="http://www.w3.org/1999/xlink" width="500" zoomAndPan="magnify" viewBox="0 0 375 374.999991" height="500" preserveAspectRatio="xMidYMid meet" version="1.0"><rect x="-37.5" width="450" fill="#ffffff" y="-37.499999" height="449.999989" fill-opacity="1"/><rect x="-37.5" width="450" fill="#ffffff" y="-37.499999" height="449.999989" fill-opacity="1"/><rect x="-37.5" width="450" fill="#ffffff" y="-37.499999" height="449.999989" fill-opacity="1"/><rect x="-37.5" width="450" fill="#ffffff" y="-37.499999" height="449.999989" fill-opacity="1"/><path fill="#ffffff" d="M 307.820312 207.21875 L 67.179688 207.21875 C 63.496094 207.21875 60.496094 204.214844 60.496094 200.535156 C 60.496094 196.851562 63.496094 193.851562 67.179688 193.851562 L 307.820312 193.851562 C 311.503906 193.851562 314.503906 196.851562 314.503906 200.535156 C 314.503906 204.214844 311.503906 207.21875 307.820312 207.21875 Z M 307.820312 240.640625 L 227.605469 240.640625 C 223.925781 240.640625 220.921875 237.640625 220.921875 233.957031 C 220.921875 230.277344 223.925781 227.273438 227.605469 227.273438 L 307.820312 227.273438 C 311.503906 227.273438 314.503906 230.277344 314.503906 233.957031 C 314.503906 237.640625 311.503906 240.640625 307.820312 240.640625 Z M 274.398438 274.0625 L 100.601562 274.0625 C 96.917969 274.0625 93.917969 271.0625 93.917969 267.378906 C 93.917969 263.699219 96.917969 260.695312 100.601562 260.695312 L 274.398438 260.695312 C 278.078125 260.695312 281.082031 263.699219 281.082031 267.378906 C 281.082031 271.0625 278.078125 274.0625 274.398438 274.0625 Z M 60.496094 233.957031 C 60.496094 230.277344 63.496094 227.273438 67.179688 227.273438 L 200.867188 227.273438 C 204.550781 227.273438 207.554688 230.277344 207.554688 233.957031 C 207.554688 237.640625 204.550781 240.640625 200.867188 240.640625 L 67.179688 240.640625 C 63.496094 240.640625 60.496094 237.640625 60.496094 233.957031 Z M 109.246094 108.910156 L 142.667969 75.488281 C 145.277344 72.875 149.507812 72.875 152.121094 75.488281 C 154.730469 78.097656 154.730469 82.328125 152.121094 84.941406 L 123.421875 113.636719 L 152.121094 142.332031 C 154.730469 144.945312 154.730469 149.171875 152.121094 151.785156 C 150.8125 153.089844 149.117188 153.742188 147.394531 153.742188 C 145.667969 153.742188 143.972656 153.089844 142.667969 151.785156 L 109.246094 118.363281 C 106.632812 115.75 106.632812 111.519531 109.246094 108.910156 Z M 167.707031 158.601562 L 194.445312 65.015625 C 195.464844 61.464844 199.171875 59.457031 202.695312 60.421875 C 206.246094 61.441406 208.3125 65.121094 207.292969 68.671875 L 180.554688 162.253906 C 179.71875 165.207031 177.03125 167.113281 174.132812 167.113281 C 173.53125 167.113281 172.902344 167.035156 172.304688 166.851562 C 168.753906 165.832031 166.6875 162.152344 167.707031 158.601562 Z M 222.878906 84.941406 C 220.269531 82.328125 220.269531 78.097656 222.878906 75.488281 C 225.492188 72.875 229.722656 72.875 232.332031 75.488281 L 265.753906 108.910156 C 268.367188 111.519531 268.367188 115.75 265.753906 118.363281 L 232.332031 151.785156 C 231.027344 153.089844 229.332031 153.742188 227.605469 153.742188 C 225.882812 153.742188 224.1875 153.089844 222.878906 151.785156 C 220.269531 149.171875 220.269531 144.945312 222.878906 142.332031 L 251.578125 113.636719 Z M 187.5 0 C 84.28125 0 0.335938 77.96875 0.335938 173.796875 C 0.335938 220.925781 20.335938 265.054688 56.683594 298.058594 C 58.40625 299.601562 59.1875 301.898438 58.769531 304.171875 L 47.152344 369.867188 C 46.839844 371.796875 47.988281 373 48.507812 373.445312 C 49.003906 373.863281 50.335938 374.722656 52.085938 374.121094 L 140.160156 343.023438 C 141.335938 342.605469 142.613281 342.5 143.84375 342.789062 C 157.914062 345.976562 172.589844 347.59375 187.5 347.59375 C 290.71875 347.59375 374.664062 269.625 374.664062 173.796875 C 374.664062 77.96875 290.71875 0 187.5 0 " fill-opacity="1" fill-rule="nonzero"/><path fill="#b0cbe3" d="M 98.050781 374.996094 L 121.917969 361.359375 L 121.917969 13.605469 L 98.050781 -0.0351562 L 81.003906 -0.0351562 L 81.003906 374.996094 L 98.050781 374.996094 " fill-opacity="1" fill-rule="nonzero"/><path fill="#b0cbe3" d="M 270.226562 374.996094 L 294.09375 361.359375 L 294.09375 13.605469 L 270.226562 -0.0351562 L 253.175781 -0.0351562 L 253.175781 374.996094 L 270.226562 374.996094 " fill-opacity="1" fill-rule="nonzero"/><path fill="#b0cbe3" d="M 375.0625 276.976562 L 361.425781 253.109375 L 13.671875 253.109375 L 0.03125 276.976562 L 0.03125 294.027344 L 375.0625 294.027344 L 375.0625 276.976562 " fill-opacity="1" fill-rule="nonzero"/><path fill="#062e47" d="M 367.390625 279.535156 L 6.851562 279.535156 L 6.851562 286.351562 L 367.390625 286.351562 L 367.390625 279.535156 " fill-opacity="1" fill-rule="nonzero"/><path fill="#b0cbe3" d="M 375.0625 104.804688 L 361.425781 80.9375 L 13.671875 80.9375 L 0.03125 104.804688 L 0.03125 121.851562 L 375.0625 121.851562 L 375.0625 104.804688 " fill-opacity="1" fill-rule="nonzero"/><path fill="#062e47" d="M 367.390625 107.359375 L 6.851562 107.359375 L 6.851562 114.179688 L 367.390625 114.179688 L 367.390625 107.359375 " fill-opacity="1" fill-rule="nonzero"/><path fill="#062e47" d="M 95.496094 367.328125 L 95.496094 6.785156 L 88.675781 6.785156 L 88.675781 367.328125 L 95.496094 367.328125 " fill-opacity="1" fill-rule="nonzero"/><path fill="#062e47" d="M 267.667969 367.328125 L 267.667969 6.785156 L 260.851562 6.785156 L 260.851562 367.328125 L 267.667969 367.328125 " fill-opacity="1" fill-rule="nonzero"/><path fill="#000000" d="M 226.183594 226.789062 C 226.183594 204.828125 243.992188 187.019531 265.953125 187.019531 C 276.195312 187.019531 285.496094 190.917969 292.546875 197.277344 L 315.917969 152.699219 C 301.65625 143.0625 284.46875 137.433594 265.953125 137.433594 C 216.605469 137.433594 176.601562 177.441406 176.601562 226.789062 C 176.601562 264.660156 200.203125 296.953125 233.464844 309.960938 L 256.796875 265.460938 C 239.253906 261.320312 226.183594 245.601562 226.183594 226.789062 " fill-opacity="1" fill-rule="nonzero"/><path fill="#062e47" d="M 246.296875 186.9375 L 229.472656 152.105469 C 199.335938 164.753906 178.164062 194.539062 178.164062 229.269531 C 178.164062 238.339844 179.628906 247.0625 182.308594 255.238281 L 216.886719 233.167969 C 216.777344 231.878906 216.703125 230.585938 216.703125 229.269531 C 216.703125 209.808594 229.039062 193.277344 246.296875 186.9375 " fill-opacity="1" fill-rule="nonzero"/><path fill="#137bb6" d="M 200.542969 286.136719 L 222.613281 251.566406 C 219.46875 246.054688 217.460938 239.816406 216.886719 233.167969 L 182.308594 255.238281 C 186.117188 266.871094 192.394531 277.378906 200.542969 286.136719 " fill-opacity="1" fill-rule="nonzero"/><path fill="#000000" d="M 315.917969 152.699219 L 292.546875 197.277344 C 300.628906 204.554688 305.730469 215.0625 305.730469 226.789062 C 305.730469 248.757812 287.925781 266.566406 265.953125 266.566406 C 262.796875 266.566406 259.738281 266.160156 256.796875 265.460938 L 233.464844 309.960938 C 243.546875 313.90625 254.480469 316.144531 265.953125 316.144531 C 315.300781 316.144531 355.308594 276.136719 355.308594 226.789062 C 355.308594 195.953125 339.683594 168.757812 315.917969 152.699219 " fill-opacity="1" fill-rule="nonzero"/><path fill="#062e47" d="M 344.871094 239.304688 L 311.453125 270.097656 L 290.464844 264.144531 C 288.785156 265.527344 286.980469 266.761719 285.117188 267.894531 L 298.222656 304.601562 C 323.320312 292.445312 341.425781 268.132812 344.871094 239.304688 " fill-opacity="1" fill-rule="nonzero"/><path fill="#137bb6" d="M 261.828125 274.394531 C 258.246094 274.394531 254.777344 273.933594 251.433594 273.148438 C 247.335938 272.179688 243.464844 270.625 239.878906 268.628906 L 220.652344 302.019531 C 224.097656 303.964844 227.683594 305.683594 231.40625 307.144531 C 240.839844 310.832031 251.082031 312.929688 261.828125 312.929688 C 274.875 312.929688 287.21875 309.929688 298.222656 304.601562 L 285.117188 267.894531 C 278.3125 272.003906 270.355469 274.394531 261.828125 274.394531 " fill-opacity="1" fill-rule="nonzero"/><path fill="#137bb6" d="M 292.003906 195.777344 C 292.582031 196.300781 293.101562 196.875 293.660156 197.425781 C 301.570312 186.566406 309.953125 175.109375 316.671875 166.089844 C 314.117188 163.871094 311.425781 161.796875 308.613281 159.898438 C 307.101562 158.875 305.554688 157.914062 303.976562 156.992188 L 289.746094 193.914062 C 290.511719 194.523438 291.28125 195.128906 292.003906 195.777344 " fill-opacity="1" fill-rule="nonzero"/><path fill="#137bb6" d="M 261.828125 184.140625 C 262.953125 184.140625 264.058594 184.214844 265.15625 184.296875 L 274.828125 146.613281 C 270.589844 145.949219 266.253906 145.601562 261.828125 145.601562 C 250.359375 145.601562 239.429688 147.921875 229.472656 152.105469 L 246.296875 186.9375 C 251.152344 185.164062 256.363281 184.140625 261.828125 184.140625 " fill-opacity="1" fill-rule="nonzero"/><path fill="#76a9d1" d="M 289.746094 193.914062 L 303.976562 156.992188 C 295.164062 151.839844 285.320312 148.246094 274.828125 146.613281 L 265.15625 184.296875 C 274.421875 184.980469 282.882812 188.476562 289.746094 193.914062 " fill-opacity="1" fill-rule="nonzero"/><path fill="#76a9d1" d="M 222.613281 251.566406 L 200.542969 286.136719 C 206.371094 292.398438 213.148438 297.769531 220.652344 302.019531 L 239.878906 268.628906 C 232.6875 264.613281 226.695312 258.710938 222.613281 251.566406 " fill-opacity="1" fill-rule="nonzero"/><path fill="#137bb6" d="M 306.917969 227.8125 C 306.9375 228.300781 306.957031 228.78125 306.957031 229.269531 C 306.957031 243.324219 300.53125 255.871094 290.464844 264.144531 L 311.453125 270.097656 L 344.871094 239.304688 C 345.265625 236.007812 345.496094 232.667969 345.496094 229.269531 C 345.496094 210.183594 339.09375 192.597656 328.335938 178.527344 L 315.175781 221.78125 L 306.917969 227.8125 " fill-opacity="1" fill-rule="nonzero"/><path fill="#76a9d1" d="M 293.660156 197.425781 C 298.003906 201.761719 301.472656 206.96875 303.777344 212.757812 L 304.953125 211.558594 L 317.75 167.070312 C 317.382812 166.746094 317.039062 166.40625 316.671875 166.089844 C 309.953125 175.109375 301.570312 186.566406 293.660156 197.425781 " fill-opacity="1" fill-rule="nonzero"/><path fill="#76a9d1" d="M 303.777344 212.757812 C 305.648438 217.441406 306.75 222.503906 306.917969 227.8125 L 315.175781 221.78125 L 328.335938 178.527344 C 325.171875 174.386719 321.613281 170.554688 317.75 167.070312 L 304.953125 211.558594 L 303.777344 212.757812 " fill-opacity="1" fill-rule="nonzero"/><path fill="#000000" d="M 207.3125 238.585938 C 207.3125 216.621094 225.121094 198.816406 247.082031 198.816406 C 257.324219 198.816406 266.625 202.710938 273.675781 209.070312 L 297.046875 164.496094 C 282.785156 154.855469 265.59375 149.230469 247.082031 149.230469 C 197.734375 149.230469 157.730469 189.238281 157.730469 238.585938 C 157.730469 276.457031 181.324219 308.75 214.585938 321.757812 L 237.925781 277.257812 C 220.382812 273.113281 207.3125 257.394531 207.3125 238.585938 " fill-opacity="1" fill-rule="nonzero"/><path fill="#000000" d="M 297.046875 164.496094 L 273.675781 209.070312 C 281.75 216.351562 286.859375 226.859375 286.859375 238.585938 C 286.859375 260.554688 269.050781 278.359375 247.082031 278.359375 C 243.925781 278.359375 240.867188 277.953125 237.925781 277.257812 L 214.585938 321.757812 C 224.671875 325.703125 235.605469 327.9375 247.082031 327.9375 C 296.429688 327.9375 336.4375 287.933594 336.4375 238.585938 C 336.4375 207.75 320.8125 180.554688 297.046875 164.496094 " fill-opacity="1" fill-rule="nonzero"/><path fill="#000000" d="M 319.234375 298.742188 L 291.992188 316.082031 L 290.925781 304.171875 L 306.964844 292.847656 L 319.234375 298.742188 " fill-opacity="1" fill-rule="nonzero"/><path fill="#000000" d="M 218.742188 150.484375 L 198.570312 163.21875 L 202.820312 162.515625 L 225.464844 154.375 L 218.742188 150.484375 " fill-opacity="1" fill-rule="nonzero"/><path fill="#ef3120" d="M 258.179688 286.347656 C 259.527344 287.253906 260.871094 288.054688 262.207031 288.683594 C 272.765625 293.652344 279.242188 302.917969 283.179688 311.800781 C 288.203125 309.320312 292.921875 306.328125 297.292969 302.914062 C 295.550781 291.652344 291.976562 278.945312 287.328125 266.59375 C 280.496094 276.386719 270.183594 283.566406 258.179688 286.347656 " fill-opacity="1" fill-rule="nonzero"/><path fill="#f36645" d="M 328.703125 238.585938 C 328.703125 238.5625 328.703125 238.542969 328.703125 238.515625 C 325.605469 231.804688 320.046875 226.601562 306.808594 222.710938 C 300.558594 220.871094 295.15625 218.519531 290.480469 215.816406 C 294.074219 222.613281 296.121094 230.355469 296.121094 238.585938 C 296.121094 249.003906 292.867188 258.648438 287.328125 266.59375 C 291.976562 278.945312 295.550781 291.652344 297.292969 302.914062 C 316.40625 287.972656 328.703125 264.722656 328.703125 238.585938 " fill-opacity="1" fill-rule="nonzero"/><path fill="#ef3120" d="M 209.238281 284.96875 C 177.644531 254.304688 192.515625 208.773438 202.738281 195.765625 C 208.535156 188.375 209.246094 175.910156 208.777344 166.507812 C 183.011719 180.226562 165.464844 207.355469 165.464844 238.585938 C 165.464844 273.183594 187.019531 302.675781 217.398438 314.558594 C 218.75 315.085938 220.113281 315.570312 221.488281 316.023438 C 221.753906 305.101562 218.75 294.195312 209.238281 284.96875 " fill-opacity="1" fill-rule="nonzero"/><path fill="#ef3120" d="M 220.261719 197.546875 C 226.800781 193.261719 234.429688 190.496094 242.644531 189.757812 C 243.769531 182.484375 247.355469 175.707031 248.269531 171.597656 C 249.191406 167.429688 249.890625 161.886719 249.890625 157.019531 C 248.960938 156.984375 248.027344 156.964844 247.082031 156.964844 C 237.53125 156.964844 228.367188 158.617188 219.847656 161.632812 C 223.238281 171.9375 225.074219 185.609375 220.261719 197.546875 " fill-opacity="1" fill-rule="nonzero"/><path fill="#f36645" d="M 262.207031 288.683594 C 260.871094 288.054688 259.527344 287.253906 258.179688 286.347656 C 254.613281 287.171875 250.898438 287.621094 247.082031 287.621094 C 243.191406 287.621094 239.421875 287.117188 235.789062 286.265625 C 214.160156 281.152344 198.046875 261.773438 198.046875 238.585938 C 198.046875 221.40625 206.886719 206.304688 220.261719 197.546875 C 225.074219 185.609375 223.238281 171.9375 219.847656 161.632812 C 216.023438 162.988281 212.324219 164.617188 208.777344 166.507812 C 209.246094 175.910156 208.535156 188.375 202.738281 195.765625 C 192.515625 208.773438 177.644531 254.304688 209.238281 284.96875 C 218.75 294.195312 221.753906 305.101562 221.488281 316.023438 C 229.539062 318.707031 238.128906 320.210938 247.082031 320.210938 C 260.050781 320.210938 272.292969 317.175781 283.179688 311.800781 C 279.242188 302.917969 272.765625 293.652344 262.207031 288.683594 " fill-opacity="1" fill-rule="nonzero"/><path fill="#ef3120" d="M 263.136719 175.320312 C 263.839844 181.320312 265.757812 188.253906 269.589844 195.058594 C 273.316406 197.003906 276.773438 199.40625 279.871094 202.195312 C 284.15625 206.0625 287.761719 210.671875 290.480469 215.816406 C 295.15625 218.519531 300.558594 220.871094 306.808594 222.710938 C 320.046875 226.601562 325.605469 231.804688 328.703125 238.515625 C 328.683594 210.371094 314.414062 185.5625 292.722656 170.90625 C 283.292969 164.535156 272.449219 160.09375 260.777344 158.125 C 260.625 164.140625 261.839844 164.296875 263.136719 175.320312 " fill-opacity="1" fill-rule="nonzero"/><path fill="#f36645" d="M 242.644531 189.757812 C 244.109375 189.628906 245.585938 189.546875 247.082031 189.546875 C 255.210938 189.546875 262.851562 191.554688 269.589844 195.058594 C 265.757812 188.253906 263.839844 181.320312 263.136719 175.320312 C 261.839844 164.296875 260.625 164.140625 260.777344 158.125 C 257.21875 157.519531 253.589844 157.140625 249.890625 157.019531 C 249.890625 161.886719 249.191406 167.429688 248.269531 171.597656 C 247.355469 175.707031 243.769531 182.484375 242.644531 189.757812 " fill-opacity="1" fill-rule="nonzero"/><path fill="#000000" d="M 165.210938 148.292969 L 211.53125 101.976562 L 175.3125 65.757812 L 150.6875 71.667969 L 119.632812 102.714844 L 82.675781 65.757812 L 58.050781 71.667969 L 21.832031 107.886719 L 68.148438 154.207031 L 21.832031 200.523438 L 58.050781 236.742188 L 82.675781 230.828125 L 113.722656 199.785156 L 159.484375 245.324219 L 197.410156 212.324219 L 206.277344 189.671875 L 165.210938 148.292969 " fill-opacity="1" fill-rule="nonzero"/><path fill="#062e47" d="M 109.742188 196.441406 L 103.832031 190.164062 L 63.203125 230.421875 L 80.5625 225.625 L 109.742188 196.441406 " fill-opacity="1" fill-rule="nonzero"/><path fill="#062e47" d="M 199.871094 106.4375 L 183.621094 111.363281 L 143.234375 150.761719 L 159.484375 147.1875 L 199.871094 106.4375 " fill-opacity="1" fill-rule="nonzero"/><path fill="#76a9d1" d="M 171.679688 75.554688 L 169.339844 85.503906 L 179.269531 95.789062 L 179.949219 81.34375 L 173.773438 74.917969 L 171.679688 75.554688 " fill-opacity="1" fill-rule="nonzero"/><path fill="#137bb6" d="M 186.699219 103.480469 L 198.269531 100.402344 L 179.949219 81.34375 L 179.269531 95.789062 L 186.699219 103.480469 " fill-opacity="1" fill-rule="nonzero"/><path fill="#137bb6" d="M 162.441406 78.359375 L 169.339844 85.503906 L 171.679688 75.554688 Z M 162.441406 78.359375 " fill-opacity="1" fill-rule="nonzero"/><path fill="#76a9d1" d="M 81.875 90.054688 L 94.761719 103.121094 L 100.132812 92.742188 L 90.179688 82.875 L 81.875 90.054688 " fill-opacity="1" fill-rule="nonzero"/><path fill="#137bb6" d="M 106.300781 114.808594 L 114.550781 107.054688 L 100.132812 92.742188 L 94.761719 103.121094 L 106.300781 114.808594 " fill-opacity="1" fill-rule="nonzero"/><path fill="#137bb6" d="M 82.65625 75.40625 L 70.347656 78.359375 L 81.875 90.054688 L 90.179688 82.875 L 82.65625 75.40625 " fill-opacity="1" fill-rule="nonzero"/><path fill="#137bb6" d="M 160.96875 154.207031 L 146.191406 157.65625 L 187.667969 198.6875 L 186.949219 181.007812 L 160.96875 154.207031 " fill-opacity="1" fill-rule="nonzero"/><path fill="#76a9d1" d="M 187.667969 198.6875 L 191.5 202.476562 L 196.425781 190.773438 L 186.949219 181.007812 L 187.667969 198.6875 " fill-opacity="1" fill-rule="nonzero"/><path fill="#ef3120" d="M 184.605469 208.875 L 150.503906 174.769531 C 153.960938 188.675781 161.59375 209.136719 167.28125 223.617188 L 184.605469 208.875 " fill-opacity="1" fill-rule="nonzero"/><path fill="#ef3120" d="M 60.003906 84.269531 L 36.359375 107.417969 L 70.855469 142.085938 C 73.382812 130.3125 76.046875 111.519531 77.367188 101.644531 L 60.003906 84.269531 " fill-opacity="1" fill-rule="nonzero"/><path fill="#f36645" d="M 167.28125 223.617188 C 161.59375 209.136719 153.960938 188.675781 150.503906 174.769531 L 128.988281 153.257812 L 144.773438 137.578125 C 142.070312 124.582031 139.546875 111.003906 143.234375 102.5 C 144.964844 98.5 145.777344 93.890625 146.070312 89.285156 L 130.070312 105.230469 C 125.375 119.425781 137.128906 134.925781 124.027344 142.886719 C 115.023438 148.347656 122.601562 178.777344 131.550781 203.085938 L 158.996094 230.667969 L 167.28125 223.617188 " fill-opacity="1" fill-rule="nonzero"/><path fill="#ef3120" d="M 124.027344 142.886719 C 137.128906 134.925781 125.375 119.425781 130.070312 105.230469 L 105.464844 129.742188 L 86.152344 110.429688 C 86.851562 119.925781 86.972656 136.261719 82.65625 155.691406 C 79.714844 168.921875 83.871094 181.863281 89.582031 192.382812 L 105.335938 176.738281 L 131.550781 203.085938 C 122.601562 178.777344 115.023438 148.347656 124.027344 142.886719 " fill-opacity="1" fill-rule="nonzero"/><path fill="#ef3120" d="M 62.761719 172.285156 L 32.921875 202.015625 L 56.070312 225.652344 L 59.09375 222.65625 C 57.847656 207.75 59.183594 189.664062 62.761719 172.285156 " fill-opacity="1" fill-rule="nonzero"/><path fill="#f36645" d="M 82.65625 155.691406 C 86.972656 136.261719 86.851562 119.925781 86.152344 110.429688 L 77.367188 101.644531 C 76.046875 111.519531 73.382812 130.3125 70.855469 142.085938 L 81.917969 153.203125 L 62.761719 172.285156 C 59.183594 189.664062 57.847656 207.75 59.09375 222.65625 L 89.582031 192.382812 C 83.871094 181.863281 79.714844 168.921875 82.65625 155.691406 " fill-opacity="1" fill-rule="nonzero"/><path fill="#ef3120" d="M 144.773438 137.578125 L 177.839844 104.742188 L 154.066406 81.316406 L 146.070312 89.285156 C 145.777344 93.890625 144.964844 98.5 143.234375 102.5 C 139.546875 111.003906 142.070312 124.582031 144.773438 137.578125 " fill-opacity="1" fill-rule="nonzero"/></svg>